:SAMPLES-PER-SECOND 30
:FULLY-SPECIFIED
:DEGREES
235
root  12.9231115 39.22266622 -2.725622222 0.7329711914 -78.11959839 0.2819824219
lowerback  16.46109962 4.52188015 -2.754659891
upperback  7.088230133 5.016990185 -3.073820114
thorax  -1.59897995 2.323159933 -2.551919937
lowerneck  4.107930183 5.828129768 -5.676169872
upperneck  9.740590096 7.265789986 3.123310089
head  2.052489996 3.406780005 1.973270059
lclavicle  0 -9.442270133e-015 7.951389973e-016
lhumerus  17.85700035 -10.05519962 74.17610168
lradius  2.224028254e-031 -2.742725353e-031 129.0379944
lwrist  -7.062250077e-031 -0 12.0564003
lhand  -1.496451383e-031 -27.76390076 20.11240005
lfingers  90 7.125020027 -90
lthumb  89.89689403 5.08795885 91.16245106
rclavicle  0 -9.442270133e-015 7.951389973e-016
rhumerus  27.41220093 21.31019974 -83.86380005
rradius  -1.998324183e-031 2.911278842e-031 124.4660034
rwrist  1.059337512e-030 -3.531125038e-031 0.08909849823
rhand  -7.920061211e-032 -33.2840004 9.303460121
rfingers  -90 -7.125020027 -90
rthumb  -92.93752616 -24.25625642 -97.11982154
rfemur  -38.65819931 19.05380058 2.810659885
rtibia  -0 0 44.05759811
rfoot  -0 -7.950570107 -8.099379539
rtoes  5.373923086 19.29304026 -105.8922705
lfemur  -19.15460014 5.265110016 -8.25535965
ltibia  -0 0 64.74210358
lfoot  4.444740745e-032 -6.752799988 3.917900085
ltoes  -4.250644065 -19.5611806 -102.515957
236
root  13.03044417 39.33599878 -2.775600013 4.802978516 -78.54789734 -3.429016113
lowerback  16.46610069 4.39384985 -2.134670019
upperback  6.928269863 4.9457798 -3.085750103
thorax  -1.720469952 2.303469896 -2.903800011
lowerneck  3.533430099 5.863609791 -5.072249889
upperneck  10.06599998 7.366630077 2.952450037
head  2.281860113 3.471829891 1.847259998
lclavicle  0 -9.442270133e-015 7.951389973e-016
lhumerus  18.63199997 -9.416890144 73.49729919
lradius  2.223549788e-031 -2.743113264e-031 129.0279999
lwrist  -1.412450015e-030 -0 12.00580025
lhand  -1.496451383e-031 -27.76390076 20.11240005
lfingers  90 7.125020027 -90
lthumb  89.89689403 5.08795885 91.16245106
rclavicle  0 -9.442270133e-015 7.951389973e-016
rhumerus  27.71879959 21.38999939 -84.11660004
rradius  -1.970797634e-031 2.929983058e-031 123.9260025
rwrist  3.531125038e-031 -3.531125038e-031 0.1052749977
rhand  -7.920061211e-032 -33.2840004 9.303460121
rfingers  -90 -7.125020027 -90
rthumb  -92.93752616 -24.25625642 -97.11982154
rfemur  -38.42499924 18.07760048 4.887030125
rtibia  -0 0 45.77259827
rfoot  -0 -8.972909927 -7.971930027
rtoes  5.373923086 19.29304026 -105.8922705
lfemur  -21.02939987 5.299339771 -7.594379902
ltibia  -0 0 65.72129822
lfoot  6.662508382e-032 -6.409840107 2.329859972
ltoes  -4.250644065 -19.5611806 -102.515957
237
root  13.13068961 39.41711065 -2.82537787 8.390991211 -78.7888031 -6.708007813
lowerback  16.38899994 4.286129951 -1.493149996
upperback  6.860129833 4.904069901 -3.176749945
thorax  -1.691359997 2.298049927 -3.346299887
lowerneck  3.337569952 5.896729946 -4.652450085
upperneck  9.73925972 7.429259777 3.078639984
head  2.214529991 3.529959917 1.814560056
lclavicle  0 -9.442270133e-015 7.951389973e-016
lhumerus  19.65500069 -9.02737999 72.83280182
lradius  2.218615085e-031 -2.747105958e-031 128.9250031
lwrist  -7.062250077e-031 -3.531125038e-031 11.96459961
lhand  -1.496451383e-031 -27.76390076 20.11240005
lfingers  90 7.125020027 -90
lthumb  89.89689403 5.08795885 91.16245106
rclavicle  0 -9.442270133e-015 7.951389973e-016
rhumerus  28.24909973 20.96730042 -84.17179871
rradius  -1.954094677e-031 2.9411491e-031 123.5999985
rwrist  7.062250077e-031 -0 -0.3685950041
rhand  -7.920061211e-032 -33.2840004 9.303460121
rfingers  -90 -7.125020027 -90
rthumb  -92.93752616 -24.25625642 -97.11982154
rfemur  -38.11909866 16.9484005 6.886199951
rtibia  -0 0 48.03480148
rfoot  -0 -10.16310024 -7.910309792
rtoes  5.373923086 19.29304026 -105.8922705
lfemur  -22.89150047 5.356679916 -7.137790203
ltibia  -0 0 66.51490021
lfoot  4.720789832e-032 -6.571280003 0.1882320046
ltoes  -4.250644065 -19.5611806 -102.515957
238
root  13.23866656 39.4588891 -2.872711092 10.74700928 -78.89759827 -8.836975098
lowerback  16.54459953 4.246079922 -1.228019953
upperback  6.705530167 4.89109993 -3.114670038
thorax  -1.920899987 2.296099901 -3.445879936
lowerneck  3.137020111 5.831890106 -4.370540142
upperneck  9.705679893 7.358459949 3.092479944
head  2.250339985 3.507859945 1.778609991
lclavicle  0 -9.442270133e-015 7.951389973e-016
lhumerus  20.46199989 -8.698949814 72.60700226
lradius  2.21146353e-031 -2.752866341e-031 128.776001
lwrist  0 -1.765562519e-031 11.85210037
lhand  -1.496451383e-031 -27.76390076 20.11240005
lfingers  90 7.125020027 -90
lthumb  89.89689403 5.08795885 91.16245106
rclavicle  0 -9.442270133e-015 7.951389973e-016
rhumerus  28.71319962 20.2390995 -83.99759674
rradius  -1.956403953e-031 2.939613513e-031 123.6449966
rwrist  3.531125038e-031 -0 -2.26970005
rhand  -7.920061211e-032 -33.2840004 9.303460121
rfingers  -90 -7.125020027 -90
rthumb  -92.93752616 -24.25625642 -97.11982154
rfemur  -37.74200058 15.75380039 8.621139526
rtibia  -0 0 50.75370026
rfoot  -0 -11.15499973 -8.376020432
rtoes  5.373923086 19.29304026 -105.8922705
lfemur  -24.73320007 5.421339989 -7.032440186
ltibia  -0 0 67.03829956
lfoot  4.443914523e-032 -6.662230015 -2.244729996
ltoes  -4.250644065 -19.5611806 -102.515957
